<svg width="26" height="25" viewBox="0 0 26 25" fill="none" xmlns="http://www.w3.org/2000/svg">
<path d="M20.819 5.14877C20.8736 5.09986 20.9172 5.03984 20.947 4.9727C20.9765 4.90555 20.9916 4.83284 20.9908 4.75944C20.9901 4.68604 20.9737 4.61366 20.9428 4.54711C20.9118 4.48057 20.8669 4.42142 20.8112 4.37361C20.7525 4.32329 20.6943 4.27322 20.6366 4.22344C20.1957 3.8444 19.7399 3.45195 19.2632 3.11718C15.6211 0.553812 11.8368 0.53939 8.01597 1.89885C4.55661 3.12882 2.33506 5.58954 1.41212 9.21132C0.382552 13.2578 1.28412 16.8276 4.09365 19.8228C4.16674 19.9002 4.24134 19.9776 4.31583 20.0514C5.82506 21.5608 7.70487 22.4926 9.19432 23.1409C9.83363 23.4202 13.1139 23.7592 14.0014 23.627C19.2759 22.8393 22.7468 19.8644 23.9558 14.8875C24.1866 13.9126 24.3015 12.9139 24.2982 11.9121C24.293 10.8599 24.116 9.81569 23.7744 8.82057C23.7494 8.74614 23.7085 8.67811 23.6542 8.62138C23.5999 8.56465 23.5339 8.52061 23.4606 8.49241C23.3874 8.46421 23.3087 8.45256 23.2305 8.45827C23.1523 8.46399 23.0761 8.48694 23.0078 8.52548L22.9935 8.53364C22.8849 8.59585 22.8015 8.69429 22.7581 8.81172C22.7147 8.92916 22.714 9.05811 22.756 9.17602C23.0645 10.0314 23.2218 10.9339 23.2208 11.8431C23.2102 12.934 23.0625 14.0191 22.7813 15.0732C21.9479 18.102 19.9556 20.3096 16.6905 21.8196C13.371 23.4088 8.61062 21.802 7.34405 20.9659C5.94413 20.0088 4.71918 18.8182 3.72278 17.446C2.16013 15.2334 1.80954 12.0534 2.64925 9.14609C3.04221 7.80376 3.72895 6.56568 4.6597 5.52167C5.59046 4.47766 6.74188 3.65386 8.03049 3.11002C11.3828 1.71684 14.7465 1.47109 18.0273 3.55757C18.4671 3.83763 19.5888 4.71832 20.1556 5.16806C20.2507 5.2435 20.3695 5.28289 20.4907 5.27925C20.6122 5.27561 20.7282 5.22917 20.8187 5.14816L20.819 5.14877Z" fill="#007508" stroke="#027000"/>
<path d="M11.3451 15.5096C11.5697 15.296 11.6932 15.1879 11.8061 15.0699C15.4285 11.2855 19.3954 7.87846 23.3858 4.49776C23.5367 4.37006 23.6911 4.20716 23.8695 4.16141C24.0848 4.10642 24.4357 4.16967 24.5319 4.28653C24.5951 4.3729 24.6351 4.47404 24.6478 4.58027C24.6607 4.68651 24.646 4.79427 24.6053 4.89321C24.5115 5.13916 24.283 5.34981 24.0758 5.53391C22.8389 6.63298 21.5674 7.69419 20.3523 8.81594C17.8124 11.1617 15.2887 13.5249 12.781 15.9055C11.6822 16.9464 11.2593 16.9886 10.2483 15.8763C9.58271 15.1439 7.57411 12.6752 6.95898 11.8974C6.87207 11.7765 6.79466 11.649 6.72745 11.5162C6.5887 11.2701 6.498 10.999 6.77378 10.8082C7.081 10.5958 7.29901 10.8175 7.48112 11.0483C7.66541 11.282 7.82255 11.5387 8.01986 11.7602C8.63242 12.4476 10.6832 14.7846 11.3451 15.5096Z" fill="#007508" stroke="#027000"/>
</svg>
