<svg width="26" height="25" viewBox="0 0 26 25" fill="none" xmlns="http://www.w3.org/2000/svg">
<path d="M15.0342 0C17.623 0 19.7217 2.09867 19.7217 4.6875H24.4092C24.8407 4.6875 25.1904 5.03728 25.1904 5.46875C25.1904 5.90022 24.8407 6.25 24.4092 6.25L22.0654 6.24922V20.3125C22.0654 22.9013 19.9668 25 17.3779 25H8.00293C5.41409 25 3.31543 22.9013 3.31543 20.3125V6.25H0.97168C0.540207 6.25 0.19043 5.90022 0.19043 5.46875C0.19043 5.03728 0.540207 4.6875 0.97168 4.6875H5.65918C5.65918 2.09867 7.75784 0 10.3467 0H15.0342ZM20.5029 6.25H4.87793V20.3125C4.87793 21.9861 6.19353 23.3524 7.84696 23.4337L8.00293 23.4375H17.3779C19.0515 23.4375 20.4178 22.1219 20.4991 20.4685L20.5029 20.3125V6.25ZM10.3467 10.9375C10.7782 10.9375 11.1279 11.2873 11.1279 11.7188V17.1875C11.1279 17.619 10.7782 17.9688 10.3467 17.9688C9.91521 17.9688 9.56543 17.619 9.56543 17.1875V11.7188C9.56543 11.2873 9.91521 10.9375 10.3467 10.9375ZM15.0342 10.9375C15.4657 10.9375 15.8154 11.2873 15.8154 11.7188V17.1875C15.8154 17.619 15.4657 17.9688 15.0342 17.9688C14.6027 17.9688 14.2529 17.619 14.2529 17.1875V11.7188C14.2529 11.2873 14.6027 10.9375 15.0342 10.9375ZM15.0342 1.5625H10.3467C8.67309 1.5625 7.30677 2.8781 7.2255 4.53153L7.22168 4.6875H12.6904H18.1592C18.1592 3.01391 16.8436 1.64759 15.1901 1.56632L15.0342 1.5625Z" fill="#343434"/>
</svg>
