<svg width="48" height="48" viewBox="0 0 48 48" fill="none" xmlns="http://www.w3.org/2000/svg">
<path d="M24.3271 26.9415L12.1611 39.0335C11.8421 39.3575 11.4634 39.5195 11.0251 39.5195C10.5868 39.5195 10.2056 39.3578 9.8816 39.0345C9.5576 38.7112 9.3956 38.3233 9.3956 37.871C9.3956 37.4187 9.5576 37.0298 9.8816 36.7045L28.9926 17.6315H22.1796V19.9045C22.1796 20.3702 22.0218 20.7605 21.7061 21.0755C21.3908 21.3905 20.9998 21.548 20.5331 21.548C20.0668 21.548 19.6808 21.3905 19.3751 21.0755C19.0694 20.7605 18.9166 20.3702 18.9166 19.9045V16.0715C18.9166 15.5908 19.0803 15.1868 19.4076 14.8595C19.7349 14.5322 20.1389 14.3685 20.6196 14.3685H30.5076C30.9646 14.3685 31.4001 14.4618 31.8141 14.6485C32.2281 14.8352 32.5923 15.0817 32.9066 15.388L38.9576 21.351C39.7266 22.12 40.5948 22.7318 41.5621 23.1865C42.5294 23.6412 43.5344 23.9645 44.5771 24.1565C45.0408 24.2395 45.4453 24.4522 45.7906 24.7945C46.1359 25.1368 46.2753 25.54 46.2086 26.004C46.1419 26.5017 45.9228 26.8827 45.5511 27.147C45.1791 27.4113 44.7418 27.5022 44.2391 27.4195C42.8644 27.2195 41.5569 26.8445 40.3166 26.2945C39.0759 25.7445 37.9476 24.9408 36.9316 23.8835L34.7271 21.6915L29.2186 27.2L31.9511 29.9325C32.3578 30.3472 32.5238 30.8222 32.4491 31.3575C32.3748 31.8932 32.0929 32.3092 31.6036 32.6055L22.4871 37.9195C22.0884 38.1355 21.6686 38.1852 21.2276 38.0685C20.7866 37.9515 20.4613 37.6987 20.2516 37.31C20.0396 36.9193 19.9876 36.506 20.0956 36.07C20.2036 35.6343 20.4569 35.3045 20.8556 35.0805L28.2001 30.826L24.3271 26.9415ZM7.2731 26.311C6.81077 26.311 6.42327 26.154 6.1106 25.84C5.79794 25.526 5.6416 25.137 5.6416 24.673C5.6416 24.209 5.79794 23.8222 6.1106 23.5125C6.42327 23.2028 6.81077 23.048 7.2731 23.048H14.2731C14.7388 23.048 15.1291 23.2048 15.4441 23.5185C15.7591 23.8325 15.9166 24.2215 15.9166 24.6855C15.9166 25.1495 15.7591 25.5365 15.4441 25.8465C15.1291 26.1562 14.7388 26.311 14.2731 26.311H7.2731ZM3.2731 19.548C2.81077 19.548 2.42327 19.3897 2.1106 19.073C1.79793 18.7563 1.6416 18.3638 1.6416 17.8955C1.6416 17.4308 1.79793 17.0442 2.1106 16.7355C2.42327 16.4272 2.81077 16.273 3.2731 16.273H10.2731C10.7388 16.273 11.1291 16.4307 11.4441 16.746C11.7591 17.0617 11.9166 17.4527 11.9166 17.919C11.9166 18.3853 11.7591 18.7733 11.4441 19.083C11.1291 19.393 10.7388 19.548 10.2731 19.548H3.2731ZM39.8366 15.524C38.8396 15.524 37.9848 15.1708 37.2721 14.4645C36.5598 13.7585 36.2036 12.8997 36.2036 11.888C36.2036 10.8763 36.5598 10.019 37.2721 9.31599C37.9848 8.61265 38.8376 8.26099 39.8306 8.26099C40.8239 8.26099 41.6763 8.61549 42.3876 9.32449C43.0989 10.0338 43.4546 10.8907 43.4546 11.895C43.4546 12.8997 43.0983 13.7557 42.3856 14.463C41.6733 15.1703 40.8236 15.524 39.8366 15.524ZM7.2731 12.773C6.81077 12.773 6.42327 12.616 6.1106 12.302C5.79794 11.988 5.6416 11.599 5.6416 11.135C5.6416 10.671 5.79794 10.2842 6.1106 9.97449C6.42327 9.66482 6.81077 9.50999 7.2731 9.50999H14.2731C14.7388 9.50999 15.1291 9.66682 15.4441 9.98049C15.7591 10.2945 15.9166 10.6835 15.9166 11.1475C15.9166 11.6115 15.7591 11.9983 15.4441 12.308C15.1291 12.618 14.7388 12.773 14.2731 12.773H7.2731Z" fill="#D4380D"/>
</svg>
